<svg xmlns="http://www.w3.org/2000/svg" xmlns:xlink="http://www.w3.org/1999/xlink" width="1600" zoomAndPan="magnify" viewBox="0 0 1200 374.999991" height="500" preserveAspectRatio="xMidYMid meet" version="1.2"><defs/><g id="ca7ad10720"><rect x="0" width="1200" y="0" height="374.999991" style="fill:#ffffff;fill-opacity:1;stroke:none;"/><rect x="0" width="1200" y="0" height="374.999991" style="fill:#ffffff;fill-opacity:1;stroke:none;"/><path style="fill:none;stroke-width:23;stroke-linecap:butt;stroke-linejoin:miter;stroke:#101828;stroke-opacity:1;stroke-miterlimit:4;" d="M -0.0010427 11.499592 L 682.379203 11.499592 " transform="matrix(0.749588,0,0,0.749588,20.325,8.360515)"/><path style="fill:none;stroke-width:23;stroke-linecap:butt;stroke-linejoin:miter;stroke:#101828;stroke-opacity:1;stroke-miterlimit:4;" d="M -0.00027914 11.499088 L 478.937252 11.499088 " transform="matrix(0,-0.75,0.75,0,20.371778,367.843541)"/><path style="fill:none;stroke-width:23;stroke-linecap:butt;stroke-linejoin:miter;stroke:#101828;stroke-opacity:1;stroke-miterlimit:4;" d="M -0.00104237 11.497631 L 671.160499 11.497631 " transform="matrix(0.749825,0.000000000000000064,-0.000000000000000064,0.749825,20.325,350.546754)"/><path style="fill:none;stroke-width:23;stroke-linecap:butt;stroke-linejoin:miter;stroke:#101828;stroke-opacity:1;stroke-miterlimit:4;" d="M 0.00203575 11.498052 L 88.147883 11.498052 " transform="matrix(0,0.748803,-0.748803,0,532.316811,8.643007)"/><path style="fill:none;stroke-width:23;stroke-linecap:butt;stroke-linejoin:miter;stroke:#101828;stroke-opacity:1;stroke-miterlimit:4;" d="M 0.00215021 11.502173 L 83.955281 11.502173 " transform="matrix(0.000000001309,0.75,-0.75,0.000000001309,532.318035,304.877294)"/><g style="fill:#101828;fill-opacity:1;"><g transform="translate(44.189103, 263.743159)"><path style="stroke:none" d="M 38.78125 0 L 12.0625 0 L 12.0625 -110.984375 L 38.78125 -110.984375 L 38.78125 -97.734375 C 43 -103.535156 47.710938 -107.585938 52.921875 -109.890625 C 58.128906 -112.203125 63.960938 -113.359375 70.421875 -113.359375 L 73.59375 -113.359375 L 73.59375 -87.640625 L 67.453125 -87.640625 C 62.972656 -87.640625 59.117188 -87.046875 55.890625 -85.859375 C 52.660156 -84.671875 49.921875 -83.019531 47.671875 -80.90625 C 44.773438 -78.007812 42.566406 -74.21875 41.046875 -69.53125 C 39.535156 -64.851562 38.78125 -58.820312 38.78125 -51.4375 Z M 38.78125 0 "/></g></g><g style="fill:#101828;fill-opacity:1;"><g transform="translate(112.043614, 263.743159)"><path style="stroke:none" d="M 44.109375 2.171875 C 33.691406 2.171875 25.019531 -0.628906 18.09375 -6.234375 C 11.175781 -11.835938 7.71875 -19.914062 7.71875 -30.46875 C 7.71875 -36.40625 8.867188 -41.445312 11.171875 -45.59375 C 13.484375 -49.75 16.550781 -53.144531 20.375 -55.78125 C 23.9375 -58.289062 27.992188 -60.269531 32.546875 -61.71875 C 37.097656 -63.175781 41.679688 -64.363281 46.296875 -65.28125 L 79.328125 -71.421875 C 79.066406 -78.273438 77.285156 -83.484375 73.984375 -87.046875 C 70.691406 -90.609375 65.75 -92.390625 59.15625 -92.390625 C 54.144531 -92.390625 49.691406 -90.90625 45.796875 -87.9375 C 41.910156 -84.96875 39.4375 -80.847656 38.375 -75.578125 L 11.875 -75.578125 C 13.1875 -84.273438 16.21875 -91.394531 20.96875 -96.9375 C 25.71875 -102.476562 31.488281 -106.597656 38.28125 -109.296875 C 45.070312 -112.003906 52.09375 -113.359375 59.34375 -113.359375 C 65.8125 -113.359375 72.007812 -112.429688 77.9375 -110.578125 C 83.875 -108.734375 88.890625 -105.898438 92.984375 -102.078125 C 97.328125 -98.253906 100.421875 -93.867188 102.265625 -88.921875 C 104.117188 -83.972656 105.207031 -78.828125 105.53125 -73.484375 C 105.863281 -68.148438 106.03125 -62.910156 106.03125 -57.765625 L 106.03125 0 L 79.328125 0 L 79.328125 -15.03125 C 76.554688 -10.15625 73.191406 -6.460938 69.234375 -3.953125 C 65.804688 -1.710938 61.945312 -0.132812 57.65625 0.78125 C 53.375 1.707031 48.859375 2.171875 44.109375 2.171875 Z M 50.640625 -18.796875 C 55.921875 -18.796875 60.671875 -19.847656 64.890625 -21.953125 C 70.691406 -24.859375 74.613281 -28.75 76.65625 -33.625 C 78.695312 -38.507812 79.785156 -44.578125 79.921875 -51.828125 L 53.40625 -46.484375 C 49.582031 -45.828125 46.453125 -44.96875 44.015625 -43.90625 C 41.578125 -42.851562 39.566406 -41.601562 37.984375 -40.15625 C 36.929688 -39.101562 36.070312 -37.847656 35.40625 -36.390625 C 34.75 -34.941406 34.421875 -33.296875 34.421875 -31.453125 C 34.421875 -27.367188 35.96875 -24.238281 39.0625 -22.0625 C 42.164062 -19.882812 46.023438 -18.796875 50.640625 -18.796875 Z M 50.640625 -18.796875 "/></g></g><g style="fill:#101828;fill-opacity:1;"><g transform="translate(219.46354, 263.743159)"><path style="stroke:none" d="M 50.84375 2.171875 C 33.695312 2.171875 22.15625 -3.957031 16.21875 -16.21875 C 14.507812 -19.914062 13.289062 -23.972656 12.5625 -28.390625 C 11.832031 -32.804688 11.46875 -39.035156 11.46875 -47.078125 L 11.46875 -110.984375 L 38.1875 -110.984375 L 38.1875 -46.890625 C 38.1875 -41.210938 38.613281 -36.625 39.46875 -33.125 C 40.320312 -29.632812 41.671875 -26.835938 43.515625 -24.734375 C 46.679688 -21.429688 51.363281 -19.78125 57.5625 -19.78125 C 65.21875 -19.78125 70.890625 -22.023438 74.578125 -26.515625 C 76.816406 -29.148438 78.429688 -32.675781 79.421875 -37.09375 C 80.410156 -41.507812 80.90625 -47.34375 80.90625 -54.59375 L 80.90625 -110.984375 L 107.625 -110.984375 L 107.625 0 L 80.90625 0 L 80.90625 -14.046875 C 76.820312 -8.378906 72.4375 -4.257812 67.75 -1.6875 C 63.070312 0.882812 57.4375 2.171875 50.84375 2.171875 Z M 50.84375 2.171875 "/></g></g><g style="fill:#101828;fill-opacity:1;"><g transform="translate(329.850896, 263.743159)"><path style="stroke:none" d="M 38.78125 0 L 12.0625 0 L 12.0625 -110.984375 L 38.78125 -110.984375 L 38.78125 -96.9375 C 43.125 -103 47.832031 -107.25 52.90625 -109.6875 C 57.988281 -112.132812 63.367188 -113.359375 69.046875 -113.359375 C 76.296875 -113.359375 82.523438 -111.875 87.734375 -108.90625 C 92.941406 -105.9375 96.40625 -101.484375 98.125 -95.546875 C 101.8125 -101.742188 106.359375 -106.257812 111.765625 -109.09375 C 117.179688 -111.9375 123.515625 -113.359375 130.765625 -113.359375 C 143.296875 -113.359375 152.492188 -109.695312 158.359375 -102.375 C 164.234375 -95.050781 167.171875 -85.191406 167.171875 -72.796875 L 167.171875 0 L 140.453125 0 L 140.453125 -69.4375 C 140.453125 -77.082031 138.96875 -82.648438 136 -86.140625 C 133.039062 -89.640625 128.722656 -91.390625 123.046875 -91.390625 C 120.148438 -91.390625 117.578125 -90.894531 115.328125 -89.90625 C 113.085938 -88.914062 111.242188 -87.632812 109.796875 -86.0625 C 107.285156 -83.15625 105.535156 -79.492188 104.546875 -75.078125 C 103.554688 -70.660156 103.0625 -65.21875 103.0625 -58.75 L 103.0625 0 L 76.359375 0 L 76.359375 -69.4375 C 76.359375 -76.957031 74.804688 -82.492188 71.703125 -86.046875 C 68.609375 -89.609375 64.289062 -91.390625 58.75 -91.390625 C 53.21875 -91.390625 48.734375 -89.476562 45.296875 -85.65625 C 43.191406 -83.15625 41.578125 -79.828125 40.453125 -75.671875 C 39.335938 -71.515625 38.78125 -65.875 38.78125 -58.75 Z M 38.78125 0 "/></g></g><g style="fill:#101828;fill-opacity:1;"><g transform="translate(552.845423, 198.015287)"><path style="stroke:none" d="M 18.421875 -88.96875 C 15.179688 -88.96875 12.394531 -89.960938 10.0625 -91.953125 C 7.726562 -93.953125 6.5625 -96.617188 6.5625 -99.953125 C 6.5625 -103.191406 7.726562 -105.832031 10.0625 -107.875 C 12.394531 -109.925781 15.179688 -110.953125 18.421875 -110.953125 C 21.660156 -110.953125 24.441406 -109.925781 26.765625 -107.875 C 29.097656 -105.832031 30.265625 -103.191406 30.265625 -99.953125 C 30.265625 -96.617188 29.097656 -93.953125 26.765625 -91.953125 C 24.441406 -89.960938 21.660156 -88.96875 18.421875 -88.96875 Z M 27.984375 0 L 8.703125 0 L 8.703125 -80.109375 L 27.984375 -80.109375 Z M 27.984375 0 "/></g></g><g style="fill:#101828;fill-opacity:1;"><g transform="translate(582.831322, 198.015287)"><path style="stroke:none" d="M 40.984375 1.578125 C 34.035156 1.578125 27.894531 -0.179688 22.5625 -3.703125 C 17.226562 -7.234375 13.085938 -12.140625 10.140625 -18.421875 C 7.191406 -24.703125 5.71875 -31.9375 5.71875 -40.125 C 5.71875 -48.3125 7.191406 -55.546875 10.140625 -61.828125 C 13.085938 -68.109375 17.226562 -73.007812 22.5625 -76.53125 C 27.894531 -80.0625 34.035156 -81.828125 40.984375 -81.828125 C 45.742188 -81.828125 49.90625 -80.992188 53.46875 -79.328125 C 57.039062 -77.660156 60.445312 -74.539062 63.6875 -69.96875 L 63.6875 -108.953125 L 82.96875 -108.953125 L 82.96875 0 L 63.6875 0 L 63.6875 -10.140625 C 60.445312 -5.660156 57.039062 -2.585938 53.46875 -0.921875 C 49.90625 0.742188 45.742188 1.578125 40.984375 1.578125 Z M 45.40625 -15 C 51.59375 -15 56.585938 -17.328125 60.390625 -21.984375 C 64.203125 -26.648438 66.109375 -32.695312 66.109375 -40.125 C 66.109375 -47.550781 64.203125 -53.597656 60.390625 -58.265625 C 56.585938 -62.929688 51.59375 -65.265625 45.40625 -65.265625 C 39.3125 -65.265625 34.40625 -62.90625 30.6875 -58.1875 C 26.976562 -53.476562 25.125 -47.457031 25.125 -40.125 C 25.125 -32.882812 26.976562 -26.882812 30.6875 -22.125 C 34.40625 -17.375 39.3125 -15 45.40625 -15 Z M 45.40625 -15 "/></g></g><g style="fill:#101828;fill-opacity:1;"><g transform="translate(667.792494, 198.015287)"><path style="stroke:none" d="M 46.265625 1.578125 C 38.078125 1.578125 30.910156 -0.207031 24.765625 -3.78125 C 18.628906 -7.351562 13.867188 -12.234375 10.484375 -18.421875 C 7.109375 -24.609375 5.421875 -31.65625 5.421875 -39.5625 C 5.421875 -44.789062 6.226562 -49.925781 7.84375 -54.96875 C 9.46875 -60.019531 11.945312 -64.566406 15.28125 -68.609375 C 18.613281 -72.660156 22.800781 -75.875 27.84375 -78.25 C 32.882812 -80.632812 38.832031 -81.828125 45.6875 -81.828125 C 50.832031 -81.828125 55.804688 -81.015625 60.609375 -79.390625 C 65.421875 -77.773438 69.726562 -75.273438 73.53125 -71.890625 C 77.34375 -68.515625 80.367188 -64.207031 82.609375 -58.96875 C 84.847656 -53.738281 85.96875 -47.503906 85.96875 -40.265625 L 85.96875 -36.125 L 25.421875 -36.125 C 25.609375 -34.414062 25.988281 -32.726562 26.5625 -31.0625 C 27.132812 -29.394531 27.753906 -27.941406 28.421875 -26.703125 C 30.316406 -22.992188 32.859375 -20.113281 36.046875 -18.0625 C 39.242188 -16.019531 42.890625 -15 46.984375 -15 C 51.546875 -15 55.375 -16.1875 58.46875 -18.5625 C 61.5625 -20.945312 63.726562 -23.753906 64.96875 -26.984375 L 84.671875 -26.984375 C 83.148438 -21.847656 80.722656 -17.113281 77.390625 -12.78125 C 74.054688 -8.445312 69.816406 -4.96875 64.671875 -2.34375 C 59.535156 0.269531 53.398438 1.578125 46.265625 1.578125 Z M 26.28125 -50.546875 L 66.25 -50.546875 C 66.15625 -51.597656 65.894531 -52.789062 65.46875 -54.125 C 65.039062 -55.457031 64.304688 -56.738281 63.265625 -57.96875 C 61.453125 -60.832031 59.046875 -62.976562 56.046875 -64.40625 C 53.046875 -65.832031 49.785156 -66.546875 46.265625 -66.546875 C 42.742188 -66.546875 39.53125 -65.832031 36.625 -64.40625 C 33.71875 -62.976562 31.316406 -60.832031 29.421875 -57.96875 C 28.367188 -56.738281 27.628906 -55.457031 27.203125 -54.125 C 26.773438 -52.789062 26.46875 -51.597656 26.28125 -50.546875 Z M 26.28125 -50.546875 "/></g></g><g style="fill:#101828;fill-opacity:1;"><g transform="translate(752.32529, 198.015287)"><path style="stroke:none" d="M 46.265625 1.578125 C 38.078125 1.578125 30.910156 -0.207031 24.765625 -3.78125 C 18.628906 -7.351562 13.867188 -12.234375 10.484375 -18.421875 C 7.109375 -24.609375 5.421875 -31.65625 5.421875 -39.5625 C 5.421875 -44.789062 6.226562 -49.925781 7.84375 -54.96875 C 9.46875 -60.019531 11.945312 -64.566406 15.28125 -68.609375 C 18.613281 -72.660156 22.800781 -75.875 27.84375 -78.25 C 32.882812 -80.632812 38.832031 -81.828125 45.6875 -81.828125 C 50.832031 -81.828125 55.804688 -81.015625 60.609375 -79.390625 C 65.421875 -77.773438 69.726562 -75.273438 73.53125 -71.890625 C 77.34375 -68.515625 80.367188 -64.207031 82.609375 -58.96875 C 84.847656 -53.738281 85.96875 -47.503906 85.96875 -40.265625 L 85.96875 -36.125 L 25.421875 -36.125 C 25.609375 -34.414062 25.988281 -32.726562 26.5625 -31.0625 C 27.132812 -29.394531 27.753906 -27.941406 28.421875 -26.703125 C 30.316406 -22.992188 32.859375 -20.113281 36.046875 -18.0625 C 39.242188 -16.019531 42.890625 -15 46.984375 -15 C 51.546875 -15 55.375 -16.1875 58.46875 -18.5625 C 61.5625 -20.945312 63.726562 -23.753906 64.96875 -26.984375 L 84.671875 -26.984375 C 83.148438 -21.847656 80.722656 -17.113281 77.390625 -12.78125 C 74.054688 -8.445312 69.816406 -4.96875 64.671875 -2.34375 C 59.535156 0.269531 53.398438 1.578125 46.265625 1.578125 Z M 26.28125 -50.546875 L 66.25 -50.546875 C 66.15625 -51.597656 65.894531 -52.789062 65.46875 -54.125 C 65.039062 -55.457031 64.304688 -56.738281 63.265625 -57.96875 C 61.453125 -60.832031 59.046875 -62.976562 56.046875 -64.40625 C 53.046875 -65.832031 49.785156 -66.546875 46.265625 -66.546875 C 42.742188 -66.546875 39.53125 -65.832031 36.625 -64.40625 C 33.71875 -62.976562 31.316406 -60.832031 29.421875 -57.96875 C 28.367188 -56.738281 27.628906 -55.457031 27.203125 -54.125 C 26.773438 -52.789062 26.46875 -51.597656 26.28125 -50.546875 Z M 26.28125 -50.546875 "/></g></g><g style="fill:#101828;fill-opacity:1;"><g transform="translate(836.858099, 198.015287)"><path style="stroke:none" d="M 27.984375 0 L 8.703125 0 L 8.703125 -80.109375 L 27.984375 -80.109375 L 27.984375 -69.96875 C 31.222656 -74.445312 34.601562 -77.539062 38.125 -79.25 C 41.644531 -80.96875 45.550781 -81.828125 49.84375 -81.828125 C 57.164062 -81.828125 62.707031 -80.515625 66.46875 -77.890625 C 70.226562 -75.273438 73.015625 -72.113281 74.828125 -68.40625 C 76.441406 -64.875 77.390625 -61.273438 77.671875 -57.609375 C 77.960938 -53.953125 78.109375 -50.125 78.109375 -46.125 L 78.109375 0 L 58.96875 0 L 58.96875 -46.40625 C 58.96875 -50.5 58.632812 -53.804688 57.96875 -56.328125 C 57.300781 -58.859375 56.304688 -60.882812 54.984375 -62.40625 C 52.691406 -64.78125 49.3125 -65.96875 44.84375 -65.96875 C 39.414062 -65.96875 35.367188 -64.347656 32.703125 -61.109375 C 31.078125 -59.210938 29.882812 -56.691406 29.125 -53.546875 C 28.363281 -50.410156 27.984375 -46.175781 27.984375 -40.84375 Z M 27.984375 0 "/></g></g><g style="fill:#101828;fill-opacity:1;"><g transform="translate(844.670583, 283.484674)"><path style="stroke:none" d="M 44.84375 0 L 26.5625 0 L 2.140625 -80.109375 L 22.703125 -80.109375 L 36.40625 -28.125 L 51.6875 -80.109375 L 68.40625 -80.109375 L 83.671875 -28.421875 L 97.8125 -80.109375 L 118.234375 -80.109375 L 93.390625 0 L 75.25 0 L 60.265625 -53.984375 Z M 44.84375 0 "/></g></g><g style="fill:#101828;fill-opacity:1;"><g transform="translate(958.333135, 283.484674)"><path style="stroke:none" d="M 46.265625 1.578125 C 38.078125 1.578125 30.910156 -0.207031 24.765625 -3.78125 C 18.628906 -7.351562 13.867188 -12.234375 10.484375 -18.421875 C 7.109375 -24.609375 5.421875 -31.65625 5.421875 -39.5625 C 5.421875 -44.789062 6.226562 -49.925781 7.84375 -54.96875 C 9.46875 -60.019531 11.945312 -64.566406 15.28125 -68.609375 C 18.613281 -72.660156 22.800781 -75.875 27.84375 -78.25 C 32.882812 -80.632812 38.832031 -81.828125 45.6875 -81.828125 C 50.832031 -81.828125 55.804688 -81.015625 60.609375 -79.390625 C 65.421875 -77.773438 69.726562 -75.273438 73.53125 -71.890625 C 77.34375 -68.515625 80.367188 -64.207031 82.609375 -58.96875 C 84.847656 -53.738281 85.96875 -47.503906 85.96875 -40.265625 L 85.96875 -36.125 L 25.421875 -36.125 C 25.609375 -34.414062 25.988281 -32.726562 26.5625 -31.0625 C 27.132812 -29.394531 27.753906 -27.941406 28.421875 -26.703125 C 30.316406 -22.992188 32.859375 -20.113281 36.046875 -18.0625 C 39.242188 -16.019531 42.890625 -15 46.984375 -15 C 51.546875 -15 55.375 -16.1875 58.46875 -18.5625 C 61.5625 -20.945312 63.726562 -23.753906 64.96875 -26.984375 L 84.671875 -26.984375 C 83.148438 -21.847656 80.722656 -17.113281 77.390625 -12.78125 C 74.054688 -8.445312 69.816406 -4.96875 64.671875 -2.34375 C 59.535156 0.269531 53.398438 1.578125 46.265625 1.578125 Z M 26.28125 -50.546875 L 66.25 -50.546875 C 66.15625 -51.597656 65.894531 -52.789062 65.46875 -54.125 C 65.039062 -55.457031 64.304688 -56.738281 63.265625 -57.96875 C 61.453125 -60.832031 59.046875 -62.976562 56.046875 -64.40625 C 53.046875 -65.832031 49.785156 -66.546875 46.265625 -66.546875 C 42.742188 -66.546875 39.53125 -65.832031 36.625 -64.40625 C 33.71875 -62.976562 31.316406 -60.832031 29.421875 -57.96875 C 28.367188 -56.738281 27.628906 -55.457031 27.203125 -54.125 C 26.773438 -52.789062 26.46875 -51.597656 26.28125 -50.546875 Z M 26.28125 -50.546875 "/></g></g><g style="fill:#101828;fill-opacity:1;"><g transform="translate(1042.865944, 283.484674)"><path style="stroke:none" d="M 27.984375 0 L 8.703125 0 L 8.703125 -80.109375 L 27.984375 -80.109375 L 27.984375 -70.546875 C 31.035156 -74.734375 34.441406 -77.660156 38.203125 -79.328125 C 41.960938 -80.992188 46.171875 -81.828125 50.828125 -81.828125 L 53.125 -81.828125 L 53.125 -63.265625 L 48.6875 -63.265625 C 45.457031 -63.265625 42.675781 -62.832031 40.34375 -61.96875 C 38.007812 -61.113281 36.035156 -59.925781 34.421875 -58.40625 C 32.316406 -56.3125 30.71875 -53.570312 29.625 -50.1875 C 28.53125 -46.8125 27.984375 -42.457031 27.984375 -37.125 Z M 27.984375 0 "/></g></g><g style="fill:#101828;fill-opacity:1;"><g transform="translate(1091.843289, 283.484674)"><path style="stroke:none" d="M 28.125 0 L 8.859375 0 L 8.859375 -108.953125 L 28.125 -108.953125 L 28.125 -50.546875 L 57.40625 -80.109375 L 81.828125 -80.109375 L 46.40625 -45.40625 L 84.390625 0 L 60.6875 0 L 28.125 -39.84375 Z M 28.125 0 "/></g></g></g></svg>