<svg xmlns="http://www.w3.org/2000/svg" xmlns:xlink="http://www.w3.org/1999/xlink" width="1200" zoomAndPan="magnify" viewBox="0 0 900 374.999991" height="500" preserveAspectRatio="xMidYMid meet" version="1.2"><defs><clipPath id="46e9d86785"><path d="M 58.910156 63.71875 L 312.410156 63.71875 L 312.410156 224.21875 L 58.910156 224.21875 Z M 58.910156 63.71875 "/></clipPath></defs><g id="e3e13ff924"><g clip-rule="nonzero" clip-path="url(#46e9d86785)"><path style="fill:none;stroke-width:26;stroke-linecap:butt;stroke-linejoin:miter;stroke:#000000;stroke-opacity:1;stroke-miterlimit:4;" d="M -0.00157039 0.00212167 L 337.51406 0.00212167 L 337.51406 214.361505 L -0.00157039 214.361505 Z M -0.00157039 0.00212167 " transform="matrix(0.751076,0,0,0.748743,58.911336,63.717161)"/></g><path style="fill:none;stroke-width:20;stroke-linecap:butt;stroke-linejoin:miter;stroke:#000000;stroke-opacity:1;stroke-miterlimit:4;" d="M -0.00130802 10.00146 L 414.212279 10.00146 " transform="matrix(0.749632,0,0,0.749632,29.747074,32.608053)"/><path style="fill:none;stroke-width:20;stroke-linecap:butt;stroke-linejoin:miter;stroke:#000000;stroke-opacity:1;stroke-miterlimit:4;" d="M -0.00108421 10.00259 L 414.212503 10.00259 " transform="matrix(0,-0.749632,0.749632,0,29.743925,343.546062)"/><path style="fill:none;stroke-width:20;stroke-linecap:butt;stroke-linejoin:miter;stroke:#000000;stroke-opacity:1;stroke-miterlimit:4;" d="M -0.00130802 10.001809 L 414.212279 10.001809 " transform="matrix(0.749632,0,0,0.749632,29.747074,328.549198)"/><path style="fill:none;stroke-width:20;stroke-linecap:butt;stroke-linejoin:miter;stroke:#000000;stroke-opacity:1;stroke-miterlimit:4;" d="M 0.00144539 10.000276 L 70.267074 10.000276 " transform="matrix(0,0.747165,-0.747165,0,340.405448,32.608295)"/><path style="fill:none;stroke-width:20;stroke-linecap:butt;stroke-linejoin:miter;stroke:#000000;stroke-opacity:1;stroke-miterlimit:4;" d="M -0.00235691 9.998502 L 72.612231 9.998502 " transform="matrix(0.000000001309,0.75,-0.75,0.000000001309,340.405126,289.091611)"/><g style="fill:#000000;fill-opacity:1;"><g transform="translate(359.491686, 301.830009)"><path style="stroke:none" d="M 43.96875 -70.640625 C 50.0625 -70.640625 55.390625 -69.113281 59.953125 -66.0625 C 64.523438 -63.019531 68.085938 -58.78125 70.640625 -53.34375 C 73.191406 -47.914062 74.46875 -41.660156 74.46875 -34.578125 C 74.46875 -27.492188 73.191406 -21.234375 70.640625 -15.796875 C 68.085938 -10.367188 64.523438 -6.128906 59.953125 -3.078125 C 55.390625 -0.0351562 50.0625 1.484375 43.96875 1.484375 C 39.9375 1.484375 36.351562 0.765625 33.21875 -0.671875 C 30.09375 -2.117188 27.128906 -4.816406 24.328125 -8.765625 L 24.328125 24.953125 L 7.65625 24.953125 L 7.65625 -69.28125 L 24.328125 -69.28125 L 24.328125 -60.515625 C 27.128906 -64.378906 30.09375 -67.03125 33.21875 -68.46875 C 36.351562 -69.914062 39.9375 -70.640625 43.96875 -70.640625 Z M 40.140625 -56.3125 C 34.867188 -56.3125 30.566406 -54.296875 27.234375 -50.265625 C 23.898438 -46.234375 22.234375 -41.003906 22.234375 -34.578125 C 22.234375 -28.160156 23.898438 -22.929688 27.234375 -18.890625 C 30.566406 -14.859375 34.867188 -12.84375 40.140625 -12.84375 C 45.492188 -12.84375 49.753906 -14.898438 52.921875 -19.015625 C 56.085938 -23.128906 57.671875 -28.316406 57.671875 -34.578125 C 57.671875 -40.921875 56.085938 -46.128906 52.921875 -50.203125 C 49.753906 -54.273438 45.492188 -56.3125 40.140625 -56.3125 Z M 40.140625 -56.3125 "/></g></g><g style="fill:#000000;fill-opacity:1;"><g transform="translate(432.968828, 301.830009)"><path style="stroke:none" d="M 40.140625 1.359375 C 33.222656 1.359375 27.085938 -0.160156 21.734375 -3.203125 C 16.378906 -6.253906 12.195312 -10.515625 9.1875 -15.984375 C 6.1875 -21.460938 4.6875 -27.828125 4.6875 -35.078125 C 4.6875 -42.078125 6.1875 -48.25 9.1875 -53.59375 C 12.195312 -58.945312 16.359375 -63.144531 21.671875 -66.1875 C 26.984375 -69.238281 33.140625 -70.765625 40.140625 -70.765625 C 47.140625 -70.765625 53.3125 -69.238281 58.65625 -66.1875 C 64.007812 -63.144531 68.1875 -58.945312 71.1875 -53.59375 C 74.195312 -48.25 75.703125 -42.078125 75.703125 -35.078125 C 75.703125 -27.910156 74.21875 -21.585938 71.25 -16.109375 C 68.289062 -10.640625 64.132812 -6.359375 58.78125 -3.265625 C 53.4375 -0.179688 47.222656 1.359375 40.140625 1.359375 Z M 40.140625 -12.96875 C 45.566406 -12.96875 49.96875 -15.023438 53.34375 -19.140625 C 56.726562 -23.253906 58.421875 -28.566406 58.421875 -35.078125 C 58.421875 -39.191406 57.65625 -42.851562 56.125 -46.0625 C 54.601562 -49.269531 52.484375 -51.800781 49.765625 -53.65625 C 47.046875 -55.507812 43.835938 -56.4375 40.140625 -56.4375 C 36.597656 -56.4375 33.425781 -55.53125 30.625 -53.71875 C 27.820312 -51.90625 25.640625 -49.394531 24.078125 -46.1875 C 22.515625 -42.976562 21.734375 -39.273438 21.734375 -35.078125 C 21.734375 -28.484375 23.460938 -23.148438 26.921875 -19.078125 C 30.378906 -15.003906 34.785156 -12.96875 40.140625 -12.96875 Z M 40.140625 -12.96875 "/></g></g><g style="fill:#000000;fill-opacity:1;"><g transform="translate(507.557396, 301.830009)"><path style="stroke:none" d="M 42.984375 0 L 29.265625 0 C 24.160156 0 20.1875 -1.191406 17.34375 -3.578125 C 14.507812 -5.960938 13.09375 -9.832031 13.09375 -15.1875 L 13.09375 -55.953125 L 2.84375 -55.953125 L 2.84375 -69.28125 L 13.09375 -69.28125 L 13.09375 -94.234375 L 29.765625 -94.234375 L 29.765625 -69.28125 L 43.09375 -69.28125 L 43.09375 -55.953125 L 29.765625 -55.953125 L 29.765625 -20.25 C 29.765625 -18.4375 30.070312 -16.910156 30.6875 -15.671875 C 31.300781 -14.441406 32.882812 -13.828125 35.4375 -13.828125 L 42.984375 -13.828125 Z M 42.984375 0 "/></g></g><g style="fill:#000000;fill-opacity:1;"><g transform="translate(548.926583, 301.830009)"><path style="stroke:none" d="M 40.015625 1.359375 C 32.929688 1.359375 26.734375 -0.179688 21.421875 -3.265625 C 16.117188 -6.359375 12.003906 -10.578125 9.078125 -15.921875 C 6.148438 -21.273438 4.6875 -27.367188 4.6875 -34.203125 C 4.6875 -38.734375 5.382812 -43.179688 6.78125 -47.546875 C 8.1875 -51.910156 10.328125 -55.84375 13.203125 -59.34375 C 16.085938 -62.84375 19.710938 -65.617188 24.078125 -67.671875 C 28.441406 -69.734375 33.585938 -70.765625 39.515625 -70.765625 C 43.960938 -70.765625 48.265625 -70.0625 52.421875 -68.65625 C 56.578125 -67.257812 60.300781 -65.097656 63.59375 -62.171875 C 66.894531 -59.253906 69.507812 -55.53125 71.4375 -51 C 73.375 -46.476562 74.34375 -41.085938 74.34375 -34.828125 L 74.34375 -31.25 L 21.984375 -31.25 C 22.148438 -29.757812 22.476562 -28.296875 22.96875 -26.859375 C 23.46875 -25.421875 24.003906 -24.164062 24.578125 -23.09375 C 26.222656 -19.882812 28.425781 -17.394531 31.1875 -15.625 C 33.945312 -13.851562 37.09375 -12.96875 40.625 -12.96875 C 44.582031 -12.96875 47.898438 -13.992188 50.578125 -16.046875 C 53.253906 -18.109375 55.125 -20.539062 56.1875 -23.34375 L 73.234375 -23.34375 C 71.921875 -18.894531 69.820312 -14.796875 66.9375 -11.046875 C 64.050781 -7.304688 60.382812 -4.300781 55.9375 -2.03125 C 51.5 0.226562 46.191406 1.359375 40.015625 1.359375 Z M 22.71875 -43.71875 L 57.296875 -43.71875 C 57.222656 -44.625 57 -45.648438 56.625 -46.796875 C 56.25 -47.953125 55.609375 -49.066406 54.703125 -50.140625 C 53.140625 -52.609375 51.0625 -54.457031 48.46875 -55.6875 C 45.875 -56.925781 43.054688 -57.546875 40.015625 -57.546875 C 36.960938 -57.546875 34.179688 -56.925781 31.671875 -55.6875 C 29.160156 -54.457031 27.082031 -52.609375 25.4375 -50.140625 C 24.53125 -49.066406 23.890625 -47.953125 23.515625 -46.796875 C 23.148438 -45.648438 22.882812 -44.625 22.71875 -43.71875 Z M 22.71875 -43.71875 "/></g></g><g style="fill:#000000;fill-opacity:1;"><g transform="translate(622.033233, 301.830009)"><path style="stroke:none" d="M 24.203125 0 L 7.53125 0 L 7.53125 -69.28125 L 24.203125 -69.28125 L 24.203125 -60.515625 C 27.003906 -64.378906 29.925781 -67.050781 32.96875 -68.53125 C 36.019531 -70.019531 39.394531 -70.765625 43.09375 -70.765625 C 49.4375 -70.765625 54.234375 -69.628906 57.484375 -67.359375 C 60.742188 -65.097656 63.15625 -62.363281 64.71875 -59.15625 C 66.113281 -56.113281 66.929688 -53.003906 67.171875 -49.828125 C 67.421875 -46.660156 67.546875 -43.347656 67.546875 -39.890625 L 67.546875 0 L 51 0 L 51 -40.140625 C 51 -43.679688 50.710938 -46.539062 50.140625 -48.71875 C 49.566406 -50.90625 48.703125 -52.65625 47.546875 -53.96875 C 45.566406 -56.03125 42.644531 -57.0625 38.78125 -57.0625 C 34.082031 -57.0625 30.582031 -55.660156 28.28125 -52.859375 C 26.882812 -51.210938 25.851562 -49.03125 25.1875 -46.3125 C 24.53125 -43.59375 24.203125 -39.929688 24.203125 -35.328125 Z M 24.203125 0 "/></g></g><g style="fill:#000000;fill-opacity:1;"><g transform="translate(690.817668, 301.830009)"><path style="stroke:none" d="M 64.09375 0 L 3.828125 0 L 3.828125 -10.984375 L 43.21875 -55.828125 L 5.921875 -55.828125 L 5.921875 -69.28125 L 64.21875 -69.28125 L 64.21875 -57.296875 L 26.1875 -13.46875 L 64.09375 -13.46875 Z M 64.09375 0 "/></g></g><g style="fill:#000000;fill-opacity:1;"><g transform="translate(753.427511, 301.830009)"><path style="stroke:none" d="M 15.9375 -76.9375 C 13.132812 -76.9375 10.722656 -77.800781 8.703125 -79.53125 C 6.691406 -81.257812 5.6875 -83.566406 5.6875 -86.453125 C 5.6875 -89.253906 6.691406 -91.535156 8.703125 -93.296875 C 10.722656 -95.066406 13.132812 -95.953125 15.9375 -95.953125 C 18.726562 -95.953125 21.132812 -95.066406 23.15625 -93.296875 C 25.175781 -91.535156 26.1875 -89.253906 26.1875 -86.453125 C 26.1875 -83.566406 25.175781 -81.257812 23.15625 -79.53125 C 21.132812 -77.800781 18.726562 -76.9375 15.9375 -76.9375 Z M 24.203125 0 L 7.53125 0 L 7.53125 -69.28125 L 24.203125 -69.28125 Z M 24.203125 0 "/></g></g><g style="fill:#000000;fill-opacity:1;"><g transform="translate(779.360188, 301.830009)"><path style="stroke:none" d="M 27.546875 1.359375 C 21.035156 1.359375 15.617188 -0.390625 11.296875 -3.890625 C 6.972656 -7.390625 4.8125 -12.429688 4.8125 -19.015625 C 4.8125 -22.722656 5.53125 -25.875 6.96875 -28.46875 C 8.414062 -31.0625 10.332031 -33.179688 12.71875 -34.828125 C 14.945312 -36.390625 17.476562 -37.625 20.3125 -38.53125 C 23.15625 -39.4375 26.019531 -40.175781 28.90625 -40.75 L 49.53125 -44.578125 C 49.363281 -48.859375 48.25 -52.113281 46.1875 -54.34375 C 44.125 -56.5625 41.035156 -57.671875 36.921875 -57.671875 C 33.796875 -57.671875 31.019531 -56.742188 28.59375 -54.890625 C 26.164062 -53.035156 24.617188 -50.460938 23.953125 -47.171875 L 7.40625 -47.171875 C 8.226562 -52.609375 10.117188 -57.054688 13.078125 -60.515625 C 16.046875 -63.972656 19.648438 -66.546875 23.890625 -68.234375 C 28.128906 -69.921875 32.515625 -70.765625 37.046875 -70.765625 C 41.078125 -70.765625 44.945312 -70.1875 48.65625 -69.03125 C 52.363281 -67.882812 55.492188 -66.113281 58.046875 -63.71875 C 60.765625 -61.332031 62.695312 -58.59375 63.84375 -55.5 C 65 -52.414062 65.679688 -49.207031 65.890625 -45.875 C 66.097656 -42.539062 66.203125 -39.269531 66.203125 -36.0625 L 66.203125 0 L 49.53125 0 L 49.53125 -9.390625 C 47.800781 -6.335938 45.695312 -4.03125 43.21875 -2.46875 C 41.082031 -1.070312 38.675781 -0.0859375 36 0.484375 C 33.320312 1.066406 30.503906 1.359375 27.546875 1.359375 Z M 31.609375 -11.734375 C 34.910156 -11.734375 37.878906 -12.390625 40.515625 -13.703125 C 44.128906 -15.515625 46.570312 -17.941406 47.84375 -20.984375 C 49.125 -24.035156 49.804688 -27.828125 49.890625 -32.359375 L 33.34375 -29.015625 C 30.957031 -28.609375 29 -28.070312 27.46875 -27.40625 C 25.945312 -26.75 24.695312 -25.972656 23.71875 -25.078125 C 23.050781 -24.410156 22.507812 -23.625 22.09375 -22.71875 C 21.6875 -21.8125 21.484375 -20.785156 21.484375 -19.640625 C 21.484375 -17.085938 22.453125 -15.128906 24.390625 -13.765625 C 26.328125 -12.410156 28.734375 -11.734375 31.609375 -11.734375 Z M 31.609375 -11.734375 "/></g></g><g style="fill:#000000;fill-opacity:1;"><g transform="translate(846.415741, 301.830009)"><path style="stroke:none" d="M 34.09375 0 L 23.34375 0 C 18.238281 0 14.285156 -1.191406 11.484375 -3.578125 C 8.679688 -5.960938 7.28125 -9.832031 7.28125 -15.1875 L 7.28125 -94.234375 L 23.953125 -94.234375 L 23.953125 -20.125 C 23.953125 -17.820312 24.382812 -16.195312 25.25 -15.25 C 26.113281 -14.300781 27.578125 -13.828125 29.640625 -13.828125 L 34.09375 -13.828125 Z M 34.09375 0 "/></g></g><g style="fill:#000000;fill-opacity:1;"><g transform="translate(353.905682, 195.054484)"><path style="stroke:none" d="M 44.140625 0 L 13.734375 0 L 13.734375 -126.359375 L 44.140625 -126.359375 L 44.140625 -111.265625 C 48.953125 -117.867188 54.320312 -122.484375 60.25 -125.109375 C 66.175781 -127.742188 72.820312 -129.0625 80.1875 -129.0625 L 83.78125 -129.0625 L 83.78125 -99.78125 L 76.8125 -99.78125 C 71.695312 -99.78125 67.300781 -99.101562 63.625 -97.75 C 59.945312 -96.394531 56.832031 -94.519531 54.28125 -92.125 C 50.976562 -88.820312 48.460938 -84.503906 46.734375 -79.171875 C 45.003906 -73.835938 44.140625 -66.96875 44.140625 -58.5625 Z M 44.140625 0 "/></g></g><g style="fill:#000000;fill-opacity:1;"><g transform="translate(431.160243, 195.054484)"><path style="stroke:none" d="M 50.234375 2.484375 C 38.367188 2.484375 28.492188 -0.707031 20.609375 -7.09375 C 12.722656 -13.476562 8.78125 -22.675781 8.78125 -34.6875 C 8.78125 -41.445312 10.09375 -47.191406 12.71875 -51.921875 C 15.351562 -56.648438 18.847656 -60.515625 23.203125 -63.515625 C 27.253906 -66.367188 31.867188 -68.617188 37.046875 -70.265625 C 42.234375 -71.921875 47.453125 -73.273438 52.703125 -74.328125 L 90.3125 -81.3125 C 90.019531 -89.113281 87.992188 -95.046875 84.234375 -99.109375 C 80.484375 -103.160156 74.851562 -105.1875 67.34375 -105.1875 C 61.632812 -105.1875 56.566406 -103.492188 52.140625 -100.109375 C 47.710938 -96.734375 44.898438 -92.046875 43.703125 -86.046875 L 13.515625 -86.046875 C 15.015625 -95.953125 18.46875 -104.054688 23.875 -110.359375 C 29.28125 -116.671875 35.847656 -121.363281 43.578125 -124.4375 C 51.316406 -127.519531 59.3125 -129.0625 67.5625 -129.0625 C 74.925781 -129.0625 81.984375 -128.007812 88.734375 -125.90625 C 95.492188 -123.800781 101.203125 -120.570312 105.859375 -116.21875 C 110.816406 -111.863281 114.34375 -106.867188 116.4375 -101.234375 C 118.539062 -95.609375 119.78125 -89.753906 120.15625 -83.671875 C 120.53125 -77.585938 120.71875 -71.617188 120.71875 -65.765625 L 120.71875 0 L 90.3125 0 L 90.3125 -17.125 C 87.164062 -11.5625 83.335938 -7.351562 78.828125 -4.5 C 74.921875 -1.945312 70.523438 -0.144531 65.640625 0.90625 C 60.765625 1.957031 55.628906 2.484375 50.234375 2.484375 Z M 57.65625 -21.390625 C 63.664062 -21.390625 69.070312 -22.59375 73.875 -25 C 80.476562 -28.300781 84.941406 -32.726562 87.265625 -38.28125 C 89.597656 -43.84375 90.84375 -50.753906 91 -59.015625 L 60.8125 -52.9375 C 56.457031 -52.175781 52.890625 -51.195312 50.109375 -50 C 47.335938 -48.800781 45.050781 -47.375 43.25 -45.71875 C 42.039062 -44.519531 41.0625 -43.09375 40.3125 -41.4375 C 39.5625 -39.789062 39.1875 -37.914062 39.1875 -35.8125 C 39.1875 -31.15625 40.953125 -27.585938 44.484375 -25.109375 C 48.015625 -22.628906 52.40625 -21.390625 57.65625 -21.390625 Z M 57.65625 -21.390625 "/></g></g><g style="fill:#000000;fill-opacity:1;"><g transform="translate(553.461195, 195.054484)"><path style="stroke:none" d="M 57.890625 2.484375 C 38.367188 2.484375 25.226562 -4.5 18.46875 -18.46875 C 16.519531 -22.675781 15.128906 -27.289062 14.296875 -32.3125 C 13.472656 -37.34375 13.0625 -44.441406 13.0625 -53.609375 L 13.0625 -126.359375 L 43.46875 -126.359375 L 43.46875 -53.375 C 43.46875 -46.925781 43.953125 -41.710938 44.921875 -37.734375 C 45.898438 -33.753906 47.441406 -30.5625 49.546875 -28.15625 C 53.148438 -24.394531 58.484375 -22.515625 65.546875 -22.515625 C 74.253906 -22.515625 80.707031 -25.070312 84.90625 -30.1875 C 87.46875 -33.1875 89.3125 -37.203125 90.4375 -42.234375 C 91.5625 -47.265625 92.125 -53.910156 92.125 -62.171875 L 92.125 -126.359375 L 122.53125 -126.359375 L 122.53125 0 L 92.125 0 L 92.125 -15.984375 C 87.46875 -9.535156 82.472656 -4.84375 77.140625 -1.90625 C 71.804688 1.019531 65.390625 2.484375 57.890625 2.484375 Z M 57.890625 2.484375 "/></g></g><g style="fill:#000000;fill-opacity:1;"><g transform="translate(679.140661, 195.054484)"><path style="stroke:none" d="M 44.140625 0 L 13.734375 0 L 13.734375 -126.359375 L 44.140625 -126.359375 L 44.140625 -110.359375 C 49.097656 -117.265625 54.46875 -122.109375 60.25 -124.890625 C 66.03125 -127.671875 72.148438 -129.0625 78.609375 -129.0625 C 86.867188 -129.0625 93.960938 -127.367188 99.890625 -123.984375 C 105.816406 -120.609375 109.757812 -115.539062 111.71875 -108.78125 C 115.914062 -115.84375 121.09375 -120.988281 127.25 -124.21875 C 133.40625 -127.445312 140.613281 -129.0625 148.875 -129.0625 C 163.144531 -129.0625 173.617188 -124.894531 180.296875 -116.5625 C 186.984375 -108.226562 190.328125 -97.003906 190.328125 -82.890625 L 190.328125 0 L 159.921875 0 L 159.921875 -79.0625 C 159.921875 -87.769531 158.226562 -94.113281 154.84375 -98.09375 C 151.46875 -102.070312 146.550781 -104.0625 140.09375 -104.0625 C 136.789062 -104.0625 133.863281 -103.5 131.3125 -102.375 C 128.757812 -101.25 126.65625 -99.785156 125 -97.984375 C 122.144531 -94.671875 120.15625 -90.5 119.03125 -85.46875 C 117.90625 -80.445312 117.34375 -74.253906 117.34375 -66.890625 L 117.34375 0 L 86.9375 0 L 86.9375 -79.0625 C 86.9375 -87.613281 85.171875 -93.914062 81.640625 -97.96875 C 78.117188 -102.03125 73.203125 -104.0625 66.890625 -104.0625 C 60.585938 -104.0625 55.484375 -101.882812 51.578125 -97.53125 C 49.171875 -94.675781 47.328125 -90.882812 46.046875 -86.15625 C 44.773438 -81.425781 44.140625 -75.003906 44.140625 -66.890625 Z M 44.140625 0 "/></g></g></g></svg>