<svg xmlns="http://www.w3.org/2000/svg" xmlns:xlink="http://www.w3.org/1999/xlink" width="500" zoomAndPan="magnify" viewBox="0 0 375 374.999991" height="500" preserveAspectRatio="xMidYMid meet" version="1.2"><defs><clipPath id="ffc16d5940"><path d="M 60.929688 62.898438 L 314.0625 62.898438 L 314.0625 215.066406 L 60.929688 215.066406 Z M 60.929688 62.898438 "/></clipPath></defs><g id="33527106f4"><g clip-rule="nonzero" clip-path="url(#ffc16d5940)"><path style="fill:none;stroke-width:26;stroke-linecap:butt;stroke-linejoin:miter;stroke:#fafafa;stroke-opacity:1;stroke-miterlimit:4;" d="M 0.00145787 -0.00191356 L 337.511897 -0.00191356 L 337.511897 202.888725 L 0.00145787 202.888725 Z M 0.00145787 -0.00191356 " transform="matrix(0.75,0,0,0.75,60.928594,62.899873)"/></g><g style="fill:#fafafa;fill-opacity:1;"><g transform="translate(86.579778, 171.237044)"><path style="stroke:none" d="M 16.859375 0 L 5.25 0 L 5.25 -48.25 L 16.859375 -48.25 L 16.859375 -42.484375 C 18.691406 -45.003906 20.738281 -46.765625 23 -47.765625 C 25.269531 -48.773438 27.804688 -49.28125 30.609375 -49.28125 L 31.984375 -49.28125 L 31.984375 -38.09375 L 29.328125 -38.09375 C 27.378906 -38.09375 25.703125 -37.832031 24.296875 -37.3125 C 22.890625 -36.800781 21.695312 -36.085938 20.71875 -35.171875 C 19.457031 -33.910156 18.5 -32.257812 17.84375 -30.21875 C 17.1875 -28.1875 16.859375 -25.566406 16.859375 -22.359375 Z M 16.859375 0 "/></g></g><g style="fill:#fafafa;fill-opacity:1;"><g transform="translate(116.074703, 171.237044)"><path style="stroke:none" d="M 19.171875 0.953125 C 14.648438 0.953125 10.882812 -0.265625 7.875 -2.703125 C 4.863281 -5.140625 3.359375 -8.65625 3.359375 -13.25 C 3.359375 -15.820312 3.859375 -18.007812 4.859375 -19.8125 C 5.859375 -21.625 7.191406 -23.101562 8.859375 -24.25 C 10.410156 -25.34375 12.171875 -26.203125 14.140625 -26.828125 C 16.117188 -27.460938 18.113281 -27.976562 20.125 -28.375 L 34.484375 -31.046875 C 34.367188 -34.023438 33.59375 -36.289062 32.15625 -37.84375 C 30.726562 -39.382812 28.582031 -40.15625 25.71875 -40.15625 C 23.539062 -40.15625 21.601562 -39.507812 19.90625 -38.21875 C 18.21875 -36.9375 17.144531 -35.148438 16.6875 -32.859375 L 5.15625 -32.859375 C 5.726562 -36.640625 7.046875 -39.734375 9.109375 -42.140625 C 11.179688 -44.546875 13.691406 -46.335938 16.640625 -47.515625 C 19.585938 -48.691406 22.640625 -49.28125 25.796875 -49.28125 C 28.609375 -49.28125 31.300781 -48.878906 33.875 -48.078125 C 36.457031 -47.273438 38.640625 -46.039062 40.421875 -44.375 C 42.316406 -42.707031 43.664062 -40.800781 44.46875 -38.65625 C 45.269531 -36.507812 45.738281 -34.273438 45.875 -31.953125 C 46.019531 -29.628906 46.09375 -27.347656 46.09375 -25.109375 L 46.09375 0 L 34.484375 0 L 34.484375 -6.53125 C 33.285156 -4.414062 31.820312 -2.8125 30.09375 -1.71875 C 28.601562 -0.75 26.925781 -0.0625 25.0625 0.34375 C 23.207031 0.75 21.242188 0.953125 19.171875 0.953125 Z M 22.015625 -8.171875 C 24.304688 -8.171875 26.367188 -8.628906 28.203125 -9.546875 C 30.722656 -10.804688 32.425781 -12.492188 33.3125 -14.609375 C 34.207031 -16.734375 34.6875 -19.375 34.75 -22.53125 L 23.21875 -20.203125 C 21.550781 -19.921875 20.1875 -19.550781 19.125 -19.09375 C 18.070312 -18.632812 17.203125 -18.085938 16.515625 -17.453125 C 16.054688 -16.992188 15.679688 -16.445312 15.390625 -15.8125 C 15.109375 -15.1875 14.96875 -14.472656 14.96875 -13.671875 C 14.96875 -11.898438 15.640625 -10.539062 16.984375 -9.59375 C 18.328125 -8.644531 20.003906 -8.171875 22.015625 -8.171875 Z M 22.015625 -8.171875 "/></g></g><g style="fill:#fafafa;fill-opacity:1;"><g transform="translate(162.76806, 171.237044)"><path style="stroke:none" d="M 22.109375 0.953125 C 14.648438 0.953125 9.628906 -1.710938 7.046875 -7.046875 C 6.304688 -8.648438 5.773438 -10.410156 5.453125 -12.328125 C 5.140625 -14.253906 4.984375 -16.96875 4.984375 -20.46875 L 4.984375 -48.25 L 16.59375 -48.25 L 16.59375 -20.375 C 16.59375 -17.914062 16.78125 -15.925781 17.15625 -14.40625 C 17.53125 -12.882812 18.117188 -11.664062 18.921875 -10.75 C 20.296875 -9.3125 22.332031 -8.59375 25.03125 -8.59375 C 28.351562 -8.59375 30.816406 -9.570312 32.421875 -11.53125 C 33.398438 -12.675781 34.101562 -14.207031 34.53125 -16.125 C 34.957031 -18.039062 35.171875 -20.578125 35.171875 -23.734375 L 35.171875 -48.25 L 46.78125 -48.25 L 46.78125 0 L 35.171875 0 L 35.171875 -6.109375 C 33.398438 -3.640625 31.492188 -1.84375 29.453125 -0.71875 C 27.421875 0.394531 24.972656 0.953125 22.109375 0.953125 Z M 22.109375 0.953125 "/></g></g><g style="fill:#fafafa;fill-opacity:1;"><g transform="translate(210.751291, 171.237044)"><path style="stroke:none" d="M 16.859375 0 L 5.25 0 L 5.25 -48.25 L 16.859375 -48.25 L 16.859375 -42.140625 C 18.742188 -44.773438 20.789062 -46.625 23 -47.6875 C 25.207031 -48.75 27.546875 -49.28125 30.015625 -49.28125 C 33.171875 -49.28125 35.878906 -48.632812 38.140625 -47.34375 C 40.398438 -46.050781 41.90625 -44.113281 42.65625 -41.53125 C 44.257812 -44.226562 46.234375 -46.191406 48.578125 -47.421875 C 50.929688 -48.660156 53.6875 -49.28125 56.84375 -49.28125 C 62.289062 -49.28125 66.289062 -47.6875 68.84375 -44.5 C 71.394531 -41.320312 72.671875 -37.035156 72.671875 -31.640625 L 72.671875 0 L 61.0625 0 L 61.0625 -30.1875 C 61.0625 -33.507812 60.414062 -35.929688 59.125 -37.453125 C 57.832031 -38.972656 55.953125 -39.734375 53.484375 -39.734375 C 52.222656 -39.734375 51.101562 -39.515625 50.125 -39.078125 C 49.15625 -38.648438 48.359375 -38.09375 47.734375 -37.40625 C 46.640625 -36.144531 45.878906 -34.550781 45.453125 -32.625 C 45.023438 -30.707031 44.8125 -28.347656 44.8125 -25.546875 L 44.8125 0 L 33.203125 0 L 33.203125 -30.1875 C 33.203125 -33.457031 32.523438 -35.863281 31.171875 -37.40625 C 29.828125 -38.957031 27.953125 -39.734375 25.546875 -39.734375 C 23.140625 -39.734375 21.1875 -38.898438 19.6875 -37.234375 C 18.769531 -36.148438 18.066406 -34.703125 17.578125 -32.890625 C 17.097656 -31.085938 16.859375 -28.640625 16.859375 -25.546875 Z M 16.859375 0 "/></g></g><g style="fill:#fafafa;fill-opacity:1;"><g transform="translate(178.205458, 311.374345)"><path style="stroke:none" d="M 18.21875 0 L 10.78125 0 L 0.875 -32.53125 L 9.21875 -32.53125 L 14.796875 -11.421875 L 21 -32.53125 L 27.78125 -32.53125 L 33.984375 -11.546875 L 39.734375 -32.53125 L 48.03125 -32.53125 L 37.9375 0 L 30.5625 0 L 24.46875 -21.921875 Z M 18.21875 0 "/></g></g><g style="fill:#fafafa;fill-opacity:1;"><g transform="translate(224.370211, 311.374345)"><path style="stroke:none" d="M 18.796875 0.640625 C 15.460938 0.640625 12.550781 -0.0820312 10.0625 -1.53125 C 7.570312 -2.988281 5.640625 -4.972656 4.265625 -7.484375 C 2.890625 -9.992188 2.203125 -12.851562 2.203125 -16.0625 C 2.203125 -18.1875 2.53125 -20.273438 3.1875 -22.328125 C 3.84375 -24.378906 4.847656 -26.222656 6.203125 -27.859375 C 7.554688 -29.503906 9.257812 -30.8125 11.3125 -31.78125 C 13.363281 -32.75 15.78125 -33.234375 18.5625 -33.234375 C 20.644531 -33.234375 22.660156 -32.90625 24.609375 -32.25 C 26.566406 -31.59375 28.316406 -30.578125 29.859375 -29.203125 C 31.410156 -27.828125 32.640625 -26.078125 33.546875 -23.953125 C 34.460938 -21.828125 34.921875 -19.296875 34.921875 -16.359375 L 34.921875 -14.671875 L 10.328125 -14.671875 C 10.398438 -13.972656 10.550781 -13.285156 10.78125 -12.609375 C 11.019531 -11.929688 11.273438 -11.34375 11.546875 -10.84375 C 12.316406 -9.332031 13.347656 -8.160156 14.640625 -7.328125 C 15.941406 -6.503906 17.421875 -6.09375 19.078125 -6.09375 C 20.929688 -6.09375 22.488281 -6.570312 23.75 -7.53125 C 25.007812 -8.5 25.890625 -9.644531 26.390625 -10.96875 L 34.390625 -10.96875 C 33.773438 -8.875 32.789062 -6.945312 31.4375 -5.1875 C 30.082031 -3.425781 28.359375 -2.015625 26.265625 -0.953125 C 24.179688 0.109375 21.691406 0.640625 18.796875 0.640625 Z M 10.671875 -20.53125 L 26.90625 -20.53125 C 26.875 -20.957031 26.769531 -21.441406 26.59375 -21.984375 C 26.414062 -22.523438 26.113281 -23.046875 25.6875 -23.546875 C 24.957031 -24.703125 23.984375 -25.570312 22.765625 -26.15625 C 21.546875 -26.738281 20.222656 -27.03125 18.796875 -27.03125 C 17.359375 -27.03125 16.050781 -26.738281 14.875 -26.15625 C 13.695312 -25.570312 12.722656 -24.703125 11.953125 -23.546875 C 11.523438 -23.046875 11.222656 -22.523438 11.046875 -21.984375 C 10.867188 -21.441406 10.742188 -20.957031 10.671875 -20.53125 Z M 10.671875 -20.53125 "/></g></g><g style="fill:#fafafa;fill-opacity:1;"><g transform="translate(258.703755, 311.374345)"><path style="stroke:none" d="M 11.375 0 L 3.53125 0 L 3.53125 -32.53125 L 11.375 -32.53125 L 11.375 -28.65625 C 12.601562 -30.351562 13.984375 -31.539062 15.515625 -32.21875 C 17.046875 -32.894531 18.753906 -33.234375 20.640625 -33.234375 L 21.578125 -33.234375 L 21.578125 -25.6875 L 19.78125 -25.6875 C 18.46875 -25.6875 17.335938 -25.515625 16.390625 -25.171875 C 15.441406 -24.828125 14.640625 -24.34375 13.984375 -23.71875 C 13.128906 -22.875 12.476562 -21.765625 12.03125 -20.390625 C 11.59375 -19.015625 11.375 -17.242188 11.375 -15.078125 Z M 11.375 0 "/></g></g><g style="fill:#fafafa;fill-opacity:1;"><g transform="translate(278.596252, 311.374345)"><path style="stroke:none" d="M 11.421875 0 L 3.59375 0 L 3.59375 -44.25 L 11.421875 -44.25 L 11.421875 -20.53125 L 23.3125 -32.53125 L 33.234375 -32.53125 L 18.84375 -18.4375 L 34.28125 0 L 24.65625 0 L 11.421875 -16.1875 Z M 11.421875 0 "/></g></g><g style="fill:#fafafa;fill-opacity:1;"><g transform="translate(59.85186, 275.924367)"><path style="stroke:none" d="M 7.484375 -36.140625 C 6.171875 -36.140625 5.039062 -36.539062 4.09375 -37.34375 C 3.144531 -38.15625 2.671875 -39.238281 2.671875 -40.59375 C 2.671875 -41.914062 3.144531 -42.988281 4.09375 -43.8125 C 5.039062 -44.644531 6.171875 -45.0625 7.484375 -45.0625 C 8.796875 -45.0625 9.925781 -44.644531 10.875 -43.8125 C 11.820312 -42.988281 12.296875 -41.914062 12.296875 -40.59375 C 12.296875 -39.238281 11.820312 -38.15625 10.875 -37.34375 C 9.925781 -36.539062 8.796875 -36.140625 7.484375 -36.140625 Z M 11.375 0 L 3.53125 0 L 3.53125 -32.53125 L 11.375 -32.53125 Z M 11.375 0 "/></g></g><g style="fill:#fafafa;fill-opacity:1;"><g transform="translate(72.03088, 275.924367)"><path style="stroke:none" d="M 16.640625 0.640625 C 13.816406 0.640625 11.320312 -0.0703125 9.15625 -1.5 C 7 -2.9375 5.316406 -4.929688 4.109375 -7.484375 C 2.910156 -10.035156 2.3125 -12.972656 2.3125 -16.296875 C 2.3125 -19.617188 2.910156 -22.554688 4.109375 -25.109375 C 5.316406 -27.660156 7 -29.648438 9.15625 -31.078125 C 11.320312 -32.515625 13.816406 -33.234375 16.640625 -33.234375 C 18.578125 -33.234375 20.269531 -32.894531 21.71875 -32.21875 C 23.164062 -31.539062 24.550781 -30.273438 25.875 -28.421875 L 25.875 -44.25 L 33.703125 -44.25 L 33.703125 0 L 25.875 0 L 25.875 -4.125 C 24.550781 -2.300781 23.164062 -1.050781 21.71875 -0.375 C 20.269531 0.300781 18.578125 0.640625 16.640625 0.640625 Z M 18.4375 -6.09375 C 20.957031 -6.09375 22.988281 -7.039062 24.53125 -8.9375 C 26.082031 -10.832031 26.859375 -13.285156 26.859375 -16.296875 C 26.859375 -19.316406 26.082031 -21.769531 24.53125 -23.65625 C 22.988281 -25.550781 20.957031 -26.5 18.4375 -26.5 C 15.96875 -26.5 13.976562 -25.539062 12.46875 -23.625 C 10.957031 -21.71875 10.203125 -19.273438 10.203125 -16.296875 C 10.203125 -13.359375 10.957031 -10.921875 12.46875 -8.984375 C 13.976562 -7.054688 15.96875 -6.09375 18.4375 -6.09375 Z M 18.4375 -6.09375 "/></g></g><g style="fill:#fafafa;fill-opacity:1;"><g transform="translate(106.538407, 275.924367)"><path style="stroke:none" d="M 18.796875 0.640625 C 15.460938 0.640625 12.550781 -0.0820312 10.0625 -1.53125 C 7.570312 -2.988281 5.640625 -4.972656 4.265625 -7.484375 C 2.890625 -9.992188 2.203125 -12.851562 2.203125 -16.0625 C 2.203125 -18.1875 2.53125 -20.273438 3.1875 -22.328125 C 3.84375 -24.378906 4.847656 -26.222656 6.203125 -27.859375 C 7.554688 -29.503906 9.257812 -30.8125 11.3125 -31.78125 C 13.363281 -32.75 15.78125 -33.234375 18.5625 -33.234375 C 20.644531 -33.234375 22.660156 -32.90625 24.609375 -32.25 C 26.566406 -31.59375 28.316406 -30.578125 29.859375 -29.203125 C 31.410156 -27.828125 32.640625 -26.078125 33.546875 -23.953125 C 34.460938 -21.828125 34.921875 -19.296875 34.921875 -16.359375 L 34.921875 -14.671875 L 10.328125 -14.671875 C 10.398438 -13.972656 10.550781 -13.285156 10.78125 -12.609375 C 11.019531 -11.929688 11.273438 -11.34375 11.546875 -10.84375 C 12.316406 -9.332031 13.347656 -8.160156 14.640625 -7.328125 C 15.941406 -6.503906 17.421875 -6.09375 19.078125 -6.09375 C 20.929688 -6.09375 22.488281 -6.570312 23.75 -7.53125 C 25.007812 -8.5 25.890625 -9.644531 26.390625 -10.96875 L 34.390625 -10.96875 C 33.773438 -8.875 32.789062 -6.945312 31.4375 -5.1875 C 30.082031 -3.425781 28.359375 -2.015625 26.265625 -0.953125 C 24.179688 0.109375 21.691406 0.640625 18.796875 0.640625 Z M 10.671875 -20.53125 L 26.90625 -20.53125 C 26.875 -20.957031 26.769531 -21.441406 26.59375 -21.984375 C 26.414062 -22.523438 26.113281 -23.046875 25.6875 -23.546875 C 24.957031 -24.703125 23.984375 -25.570312 22.765625 -26.15625 C 21.546875 -26.738281 20.222656 -27.03125 18.796875 -27.03125 C 17.359375 -27.03125 16.050781 -26.738281 14.875 -26.15625 C 13.695312 -25.570312 12.722656 -24.703125 11.953125 -23.546875 C 11.523438 -23.046875 11.222656 -22.523438 11.046875 -21.984375 C 10.867188 -21.441406 10.742188 -20.957031 10.671875 -20.53125 Z M 10.671875 -20.53125 "/></g></g><g style="fill:#fafafa;fill-opacity:1;"><g transform="translate(140.871951, 275.924367)"><path style="stroke:none" d="M 18.796875 0.640625 C 15.460938 0.640625 12.550781 -0.0820312 10.0625 -1.53125 C 7.570312 -2.988281 5.640625 -4.972656 4.265625 -7.484375 C 2.890625 -9.992188 2.203125 -12.851562 2.203125 -16.0625 C 2.203125 -18.1875 2.53125 -20.273438 3.1875 -22.328125 C 3.84375 -24.378906 4.847656 -26.222656 6.203125 -27.859375 C 7.554688 -29.503906 9.257812 -30.8125 11.3125 -31.78125 C 13.363281 -32.75 15.78125 -33.234375 18.5625 -33.234375 C 20.644531 -33.234375 22.660156 -32.90625 24.609375 -32.25 C 26.566406 -31.59375 28.316406 -30.578125 29.859375 -29.203125 C 31.410156 -27.828125 32.640625 -26.078125 33.546875 -23.953125 C 34.460938 -21.828125 34.921875 -19.296875 34.921875 -16.359375 L 34.921875 -14.671875 L 10.328125 -14.671875 C 10.398438 -13.972656 10.550781 -13.285156 10.78125 -12.609375 C 11.019531 -11.929688 11.273438 -11.34375 11.546875 -10.84375 C 12.316406 -9.332031 13.347656 -8.160156 14.640625 -7.328125 C 15.941406 -6.503906 17.421875 -6.09375 19.078125 -6.09375 C 20.929688 -6.09375 22.488281 -6.570312 23.75 -7.53125 C 25.007812 -8.5 25.890625 -9.644531 26.390625 -10.96875 L 34.390625 -10.96875 C 33.773438 -8.875 32.789062 -6.945312 31.4375 -5.1875 C 30.082031 -3.425781 28.359375 -2.015625 26.265625 -0.953125 C 24.179688 0.109375 21.691406 0.640625 18.796875 0.640625 Z M 10.671875 -20.53125 L 26.90625 -20.53125 C 26.875 -20.957031 26.769531 -21.441406 26.59375 -21.984375 C 26.414062 -22.523438 26.113281 -23.046875 25.6875 -23.546875 C 24.957031 -24.703125 23.984375 -25.570312 22.765625 -26.15625 C 21.546875 -26.738281 20.222656 -27.03125 18.796875 -27.03125 C 17.359375 -27.03125 16.050781 -26.738281 14.875 -26.15625 C 13.695312 -25.570312 12.722656 -24.703125 11.953125 -23.546875 C 11.523438 -23.046875 11.222656 -22.523438 11.046875 -21.984375 C 10.867188 -21.441406 10.742188 -20.957031 10.671875 -20.53125 Z M 10.671875 -20.53125 "/></g></g><g style="fill:#fafafa;fill-opacity:1;"><g transform="translate(175.205494, 275.924367)"><path style="stroke:none" d="M 11.375 0 L 3.53125 0 L 3.53125 -32.53125 L 11.375 -32.53125 L 11.375 -28.421875 C 12.6875 -30.234375 14.054688 -31.488281 15.484375 -32.1875 C 16.910156 -32.882812 18.492188 -33.234375 20.234375 -33.234375 C 23.210938 -33.234375 25.46875 -32.703125 27 -31.640625 C 28.53125 -30.578125 29.660156 -29.289062 30.390625 -27.78125 C 31.046875 -26.351562 31.429688 -24.894531 31.546875 -23.40625 C 31.660156 -21.914062 31.71875 -20.359375 31.71875 -18.734375 L 31.71875 0 L 23.953125 0 L 23.953125 -18.84375 C 23.953125 -20.507812 23.816406 -21.851562 23.546875 -22.875 C 23.273438 -23.90625 22.867188 -24.726562 22.328125 -25.34375 C 21.398438 -26.3125 20.03125 -26.796875 18.21875 -26.796875 C 16.007812 -26.796875 14.363281 -26.140625 13.28125 -24.828125 C 12.625 -24.046875 12.140625 -23.019531 11.828125 -21.75 C 11.523438 -20.476562 11.375 -18.757812 11.375 -16.59375 Z M 11.375 0 "/></g></g><path style="fill:none;stroke-width:20;stroke-linecap:butt;stroke-linejoin:miter;stroke:#fafafa;stroke-opacity:1;stroke-miterlimit:4;" d="M -0.00197353 9.999755 L 414.211614 9.999755 " transform="matrix(0.749632,0,0,0.749632,31.763198,32.890581)"/><path style="fill:none;stroke-width:20;stroke-linecap:butt;stroke-linejoin:miter;stroke:#fafafa;stroke-opacity:1;stroke-miterlimit:4;" d="M 0.000594988 10.001929 L 414.208972 10.001929 " transform="matrix(0,-0.749632,0.749632,0,31.760045,343.828571)"/><path style="fill:none;stroke-width:20;stroke-linecap:butt;stroke-linejoin:miter;stroke:#fafafa;stroke-opacity:1;stroke-miterlimit:4;" d="M -0.00197353 10.00013 L 414.211614 10.00013 " transform="matrix(0.749632,0,0,0.749632,31.763198,328.831706)"/><path style="fill:none;stroke-width:20;stroke-linecap:butt;stroke-linejoin:miter;stroke:#fafafa;stroke-opacity:1;stroke-miterlimit:4;" d="M -0.000265056 10.000972 L 70.265364 10.000972 " transform="matrix(0,0.747165,-0.747165,0,342.421592,32.890823)"/><path style="fill:none;stroke-width:20;stroke-linecap:butt;stroke-linejoin:miter;stroke:#fafafa;stroke-opacity:1;stroke-miterlimit:4;" d="M 0.00113145 9.999195 L 72.610511 9.999195 " transform="matrix(0.000000001309,0.75,-0.75,0.000000001309,342.421271,289.374151)"/></g></svg>